<svg width="38" height="45" viewBox="0 0 38 45" fill="none" xmlns="http://www.w3.org/2000/svg">
<path d="M4.22222 6.33331C1.89029 6.33331 0 8.23331 0 10.5555V40.1111C0 42.4333 1.89029 44.3333 4.22222 44.3333H16.8889H21.1111H33.7778C36.1106 44.3333 38 42.4333 38 40.1111V10.5555C38 8.23331 36.1106 6.33331 33.7778 6.33331H21.1111H16.8889H4.22222Z" fill="#ECF0F1"/>
<path d="M4.22222 4.22223C1.89029 4.22223 0 6.11252 0 8.44445V38C0 40.3328 1.89029 42.2222 4.22222 42.2222H16.8889H21.1111H33.7778C36.1106 42.2222 38 40.3328 38 38V8.44445C38 6.11252 36.1106 4.22223 33.7778 4.22223H21.1111H16.8889H4.22222Z" fill="#ECF0F1"/>
<path d="M4.22222 4.22223C1.89029 4.22223 0 6.11252 0 8.44445V14.7778V16.8889H38V14.7778V8.44445C38 6.11252 36.1106 4.22223 33.7778 4.22223H21.1111H16.8889H4.22222Z" fill="url(#paint0_linear_7_21)"/>
<path d="M9.50008 9.49998C9.50008 9.91583 9.41817 10.3276 9.25903 10.7118C9.09989 11.096 8.86664 11.4451 8.57259 11.7392C8.27853 12.0332 7.92944 12.2665 7.54525 12.4256C7.16105 12.5847 6.74927 12.6666 6.33341 12.6666C5.91756 12.6666 5.50578 12.5847 5.12158 12.4256C4.73739 12.2665 4.3883 12.0332 4.09424 11.7392C3.80019 11.4451 3.56694 11.096 3.4078 10.7118C3.24866 10.3276 3.16675 9.91583 3.16675 9.49998C3.16675 9.08413 3.24866 8.67235 3.4078 8.28815C3.56694 7.90395 3.80019 7.55486 4.09424 7.26081C4.3883 6.96676 4.73739 6.7335 5.12158 6.57436C5.50578 6.41522 5.91756 6.33331 6.33341 6.33331C6.74927 6.33331 7.16105 6.41522 7.54525 6.57436C7.92944 6.7335 8.27853 6.96676 8.57259 7.26081C8.86664 7.55486 9.09989 7.90395 9.25903 8.28815C9.41817 8.67235 9.50008 9.08413 9.50008 9.49998Z" fill="#E74C3C"/>
<path d="M34.8333 9.49998C34.8333 9.91583 34.7514 10.3276 34.5923 10.7118C34.4331 11.096 34.1999 11.4451 33.9058 11.7392C33.6118 12.0332 33.2627 12.2665 32.8785 12.4256C32.4943 12.5847 32.0825 12.6666 31.6667 12.6666C31.2508 12.6666 30.839 12.5847 30.4548 12.4256C30.0706 12.2665 29.7215 12.0332 29.4275 11.7392C29.1334 11.4451 28.9002 11.096 28.741 10.7118C28.5819 10.3276 28.5 9.91583 28.5 9.49998C28.5 9.08413 28.5819 8.67235 28.741 8.28815C28.9002 7.90395 29.1334 7.55486 29.4275 7.26081C29.7215 6.96676 30.0706 6.7335 30.4548 6.57436C30.839 6.41522 31.2508 6.33331 31.6667 6.33331C32.0825 6.33331 32.4943 6.41522 32.8785 6.57436C33.2627 6.7335 33.6118 6.96676 33.9058 7.26081C34.1999 7.55486 34.4331 7.90395 34.5923 8.28815C34.7514 8.67235 34.8333 9.08413 34.8333 9.49998Z" fill="#E74C3C"/>
<path d="M4.22217 21.1111V25.3333H8.44439V21.1111H4.22217ZM10.5555 21.1111V25.3333H14.7777V21.1111H10.5555ZM16.8888 21.1111V25.3333H21.1111V21.1111H16.8888ZM23.2222 21.1111V25.3333H27.4444V21.1111H23.2222ZM29.5555 21.1111V25.3333H33.7777V21.1111H29.5555Z" fill="#BDC3C7"/>
<path d="M4.22217 27.4444V31.6666H8.44439V27.4444H4.22217ZM10.5555 27.4444V31.6666H14.7777V27.4444H10.5555ZM16.8888 27.4444V31.6666H21.1111V27.4444H16.8888ZM23.2222 27.4444V31.6666H27.4444V27.4444H23.2222ZM29.5555 27.4444V31.6666H33.7777V27.4444H29.5555Z" fill="#BDC3C7"/>
<path d="M4.22217 33.7778V38H8.44439V33.7778H4.22217ZM10.5555 33.7778V38H14.7777V33.7778H10.5555ZM16.8888 33.7778V38H21.1111V33.7778H16.8888ZM23.2222 33.7778V38H27.4444V33.7778H23.2222ZM29.5555 33.7778V38H33.7777V33.7778H29.5555Z" fill="#BDC3C7"/>
<path d="M6.33328 0C5.16731 0 4.22217 0.945145 4.22217 2.11111V8.44444C4.22217 9.61041 5.16731 10.5556 6.33328 10.5556C7.49925 10.5556 8.44439 9.61041 8.44439 8.44444V2.11111C8.44439 0.945145 7.49925 0 6.33328 0ZM31.6666 0C30.5013 0 29.5555 0.945145 29.5555 2.11111V8.44444C29.5555 9.61041 30.5013 10.5556 31.6666 10.5556C32.8319 10.5556 33.7777 9.61041 33.7777 8.44444V2.11111C33.7777 0.945145 32.8319 0 31.6666 0Z" fill="#BDC3C7"/>
<path d="M6.33328 0C5.16731 0 4.22217 0.844444 4.22217 2.11111V6.33333H8.44439V2.11111C8.44439 0.844444 7.49925 0 6.33328 0ZM31.6666 0C30.5013 0 29.5555 0.844444 29.5555 2.11111V6.33333H33.7777V2.11111C33.7777 0.844444 32.8319 0 31.6666 0Z" fill="#BDC3C7"/>
<defs>
<linearGradient id="paint0_linear_7_21" x1="1.80952" y1="7.83155" x2="36.9278" y2="14.2328" gradientUnits="userSpaceOnUse">
<stop stop-color="#F07314"/>
<stop offset="1" stop-color="#FC04C4"/>
</linearGradient>
</defs>
</svg>
