<svg width="38" height="38" viewBox="0 0 38 38" fill="none" xmlns="http://www.w3.org/2000/svg">
<path d="M25.2735 19.71C27.1541 18.3792 28.5624 16.4848 29.2946 14.301C30.0267 12.1172 30.0449 9.75712 29.3463 7.56231C28.6477 5.3675 27.2687 3.45176 25.4087 2.09226C23.5488 0.732759 21.3043 0 19.0001 0C16.6959 0 14.4515 0.732759 12.5915 2.09226C10.7316 3.45176 9.35256 5.3675 8.65399 7.56231C7.95541 9.75712 7.97352 12.1172 8.7057 14.301C9.43787 16.4848 10.8461 18.3792 12.7267 19.71C9.05938 20.7783 5.83708 23.0058 3.54267 26.0586C1.24826 29.1114 0.00529151 32.8251 0 36.6434C0 37.0032 0.142984 37.3483 0.397498 37.6027C0.652012 37.8571 0.997206 38 1.35714 38H36.6429C37.0028 38 37.348 37.8571 37.6025 37.6027C37.857 37.3483 38 37.0032 38 36.6434C37.9947 32.8252 36.7518 29.1114 34.4574 26.0586C32.1631 23.0058 28.9408 20.7784 25.2735 19.71ZM10.8571 10.8687C10.8571 9.25886 11.3347 7.68519 12.2295 6.34667C13.1242 5.00816 14.396 3.96491 15.8839 3.34886C17.3718 2.73281 19.009 2.57162 20.5886 2.88568C22.1682 3.19974 23.6191 3.97494 24.7579 5.11326C25.8967 6.25157 26.6722 7.70187 26.9864 9.28076C27.3006 10.8597 27.1393 12.4962 26.523 13.9835C25.9067 15.4708 24.863 16.742 23.5239 17.6363C22.1848 18.5307 20.6105 19.0081 19 19.0081C16.8411 19.0056 14.7714 18.1473 13.2448 16.6214C11.7183 15.0955 10.8596 13.0266 10.8571 10.8687ZM2.77536 35.2869C3.11833 31.5811 4.83246 28.1366 7.58228 25.6276C10.3321 23.1185 13.9197 21.7255 17.6429 21.7212H20.3571C24.0803 21.7255 27.6679 23.1185 30.4177 25.6276C33.1675 28.1366 34.8817 31.5811 35.2246 35.2869H2.77536Z" fill="url(#paint0_linear_7_62)"/>
<defs>
<linearGradient id="paint0_linear_7_62" x1="1.80952" y1="10.828" x2="37.9611" y2="13.0245" gradientUnits="userSpaceOnUse">
<stop stop-color="#F07314"/>
<stop offset="1" stop-color="#FC04C4"/>
</linearGradient>
</defs>
</svg>
